<?xml version="1.0" encoding="UTF-8"?>
<!DOCTYPE svg PUBLIC "-//W3C//DTD SVG 1.1//EN" "http://www.w3.org/Graphics/SVG/1.1/DTD/svg11.dtd">
<svg xmlns="http://www.w3.org/2000/svg" version="1.1" width="100px" height="100px" style="shape-rendering:geometricPrecision; text-rendering:geometricPrecision; image-rendering:optimizeQuality; fill-rule:evenodd; clip-rule:evenodd" xmlns:xlink="http://www.w3.org/1999/xlink">
<g><path style="opacity:1" fill="#5f87fa" d="M 33.5,9.5 C 32.0003,11.1786 30.167,12.5119 28,13.5C 27.3333,15.8333 27.3333,18.1667 28,20.5C 28.3826,21.056 28.8826,21.3893 29.5,21.5C 30.9851,19.7512 31.9851,17.7512 32.5,15.5C 41.2994,21.0705 50.2994,26.4038 59.5,31.5C 58.9644,34.6981 59.631,37.3647 61.5,39.5C 63.12,38.1591 64.12,36.3258 64.5,34C 66.441,32.0972 68.7743,31.2639 71.5,31.5C 73.3325,32.2485 74.9991,33.2485 76.5,34.5C 75.1767,36.6864 73.1767,38.1864 70.5,39C 71.4601,42.73 71.7935,46.5633 71.5,50.5C 55.0718,40.7379 38.4051,31.4046 21.5,22.5C 20.8826,22.3893 20.3826,22.056 20,21.5C 19.3333,17.1667 19.3333,12.8333 20,8.5C 21.47,6.84808 23.3033,5.84808 25.5,5.5C 28.4057,6.41812 31.0724,7.75145 33.5,9.5 Z"/></g>
<g><path style="opacity:1" fill="#a4abb2" d="M 39.5,9.5 C 36.3661,10.9009 33.3661,12.5675 30.5,14.5C 29.5258,16.7427 29.1924,19.076 29.5,21.5C 28.8826,21.3893 28.3826,21.056 28,20.5C 27.3333,18.1667 27.3333,15.8333 28,13.5C 30.167,12.5119 32.0003,11.1786 33.5,9.5C 34.8068,8.84661 36.1401,8.17994 37.5,7.5C 38.5223,7.85549 39.189,8.52216 39.5,9.5 Z"/></g>
<g><path style="opacity:1" fill="#5975e6" d="M 39.5,13.5 C 48.1667,18.1667 56.8333,22.8333 65.5,27.5C 64.267,29.7964 62.267,31.1298 59.5,31.5C 50.2994,26.4038 41.2994,21.0705 32.5,15.5C 34.5416,13.2869 36.875,12.6202 39.5,13.5 Z"/></g>
<g><path style="opacity:1" fill="#737477" d="M 39.5,9.5 C 39.5,10.8333 39.5,12.1667 39.5,13.5C 36.875,12.6202 34.5416,13.2869 32.5,15.5C 31.9851,17.7512 30.9851,19.7512 29.5,21.5C 29.1924,19.076 29.5258,16.7427 30.5,14.5C 33.3661,12.5675 36.3661,10.9009 39.5,9.5 Z"/></g>
<g><path style="opacity:0.991" fill="#65e0fe" d="M 21.5,22.5 C 38.4051,31.4046 55.0718,40.7379 71.5,50.5C 72.1667,50.1667 72.8333,49.8333 73.5,49.5C 73.5,58.5 73.5,67.5 73.5,76.5C 73.1667,76.5 72.8333,76.5 72.5,76.5C 71.9553,74.4068 71.122,72.4068 70,70.5C 66.4186,68.6265 62.9186,66.6265 59.5,64.5C 57.6036,65.2745 55.937,66.2745 54.5,67.5C 53.609,68.1098 52.609,68.4431 51.5,68.5C 51.8076,66.076 51.4742,63.7427 50.5,61.5C 48.0824,60.5428 45.9157,59.2095 44,57.5C 43.1764,60.8823 43.343,64.2156 44.5,67.5C 47.0237,68.5923 49.357,69.9257 51.5,71.5C 51.5,74.8333 51.5,78.1667 51.5,81.5C 41.6966,76.0971 32.0299,70.4305 22.5,64.5C 21.5008,50.5159 21.1674,36.5159 21.5,22.5 Z"/></g>
<g><path style="opacity:1" fill="#a3acb2" d="M 71.5,28.5 C 67.9922,29.5041 64.8255,31.1707 62,33.5C 61.5045,35.4727 61.3379,37.4727 61.5,39.5C 59.631,37.3647 58.9644,34.6981 59.5,31.5C 62.267,31.1298 64.267,29.7964 65.5,27.5C 67.0443,27.2969 68.3777,26.6302 69.5,25.5C 70.9185,26.0047 71.5852,27.0047 71.5,28.5 Z"/></g>
<g><path style="opacity:1" fill="#72747b" d="M 71.5,28.5 C 71.5,29.5 71.5,30.5 71.5,31.5C 68.7743,31.2639 66.441,32.0972 64.5,34C 64.12,36.3258 63.12,38.1591 61.5,39.5C 61.3379,37.4727 61.5045,35.4727 62,33.5C 64.8255,31.1707 67.9922,29.5041 71.5,28.5 Z"/></g>
<g><path style="opacity:1" fill="#4daac0" d="M 29.5,33.5 C 36.6595,35.1814 38.9928,39.5147 36.5,46.5C 34.2011,45.3649 32.0344,44.0316 30,42.5C 29.502,39.5184 29.3354,36.5184 29.5,33.5 Z"/></g>
<g><path style="opacity:1" fill="#4564b7" d="M 76.5,34.5 C 77.4849,38.6344 77.8182,42.9677 77.5,47.5C 75.9382,47.7329 74.6049,48.3995 73.5,49.5C 72.8333,49.8333 72.1667,50.1667 71.5,50.5C 71.7935,46.5633 71.4601,42.73 70.5,39C 73.1767,38.1864 75.1767,36.6864 76.5,34.5 Z"/></g>
<g><path style="opacity:1" fill="#4daac0" d="M 43.5,41.5 C 45.8162,42.8056 48.1495,44.1389 50.5,45.5C 53.005,54.7675 50.8384,56.4342 44,50.5C 43.502,47.5184 43.3354,44.5184 43.5,41.5 Z"/></g>
<g><path style="opacity:1" fill="#49a1b7" d="M 77.5,47.5 C 77.8327,62.5148 77.4993,77.5148 76.5,92.5C 74.1772,93.6716 71.8439,93.6716 69.5,92.5C 69.5,91.8333 69.5,91.1667 69.5,90.5C 70.5832,90.4606 71.5832,90.1272 72.5,89.5C 73.4922,85.2172 73.8256,80.8839 73.5,76.5C 73.5,67.5 73.5,58.5 73.5,49.5C 74.6049,48.3995 75.9382,47.7329 77.5,47.5 Z"/></g>
<g><path style="opacity:1" fill="#4dabc1" d="M 29.5,49.5 C 31.8162,50.8056 34.1495,52.1389 36.5,53.5C 37.657,56.7844 37.8236,60.1177 37,63.5C 35.0843,61.7905 32.9176,60.4572 30.5,59.5C 29.513,56.2317 29.1796,52.8984 29.5,49.5 Z"/></g>
<g><path style="opacity:1" fill="#4dabc1" d="M 57.5,49.5 C 59.8162,50.8056 62.1495,52.1389 64.5,53.5C 65.657,56.7844 65.8236,60.1177 65,63.5C 63.0843,61.7905 60.9176,60.4572 58.5,59.5C 57.513,56.2317 57.1796,52.8984 57.5,49.5 Z"/></g>
<g><path style="opacity:1" fill="#4daac0" d="M 51.5,68.5 C 51.5,69.5 51.5,70.5 51.5,71.5C 49.357,69.9257 47.0237,68.5923 44.5,67.5C 43.343,64.2156 43.1764,60.8823 44,57.5C 45.9157,59.2095 48.0824,60.5428 50.5,61.5C 51.4742,63.7427 51.8076,66.076 51.5,68.5 Z"/></g>
<g><path style="opacity:1" fill="#56df77" d="M 72.5,76.5 C 71.6935,77.7281 70.6935,78.7281 69.5,79.5C 66.3116,73.3856 61.3116,69.3856 54.5,67.5C 55.937,66.2745 57.6036,65.2745 59.5,64.5C 62.9186,66.6265 66.4186,68.6265 70,70.5C 71.122,72.4068 71.9553,74.4068 72.5,76.5 Z"/></g>
<g><path style="opacity:0.972" fill="#60fe7a" d="M 54.5,67.5 C 61.3116,69.3856 66.3116,73.3856 69.5,79.5C 69.5,83.1667 69.5,86.8333 69.5,90.5C 69.5,91.1667 69.5,91.8333 69.5,92.5C 67.5454,93.3235 65.5454,93.4901 63.5,93C 60.9952,91.2467 58.3286,89.7467 55.5,88.5C 53.9019,86.3021 52.5686,83.9687 51.5,81.5C 51.5,78.1667 51.5,74.8333 51.5,71.5C 51.5,70.5 51.5,69.5 51.5,68.5C 52.609,68.4431 53.609,68.1098 54.5,67.5 Z"/></g>
<g><path style="opacity:1" fill="#45b758" d="M 59.5,74.5 C 60.7052,77.623 62.7052,80.2896 65.5,82.5C 64.6086,83.5896 63.6086,83.5896 62.5,82.5C 61.7189,83.7287 61.2189,85.062 61,86.5C 59.8372,84.7148 59.1705,82.7148 59,80.5C 57.5134,79.8448 56.3467,78.8448 55.5,77.5C 56.868,76.4063 58.0347,76.7397 59,78.5C 59.49,77.2068 59.6567,75.8734 59.5,74.5 Z"/></g>
<g><path style="opacity:1" fill="#45b45b" d="M 72.5,76.5 C 72.8333,76.5 73.1667,76.5 73.5,76.5C 73.8256,80.8839 73.4922,85.2172 72.5,89.5C 71.5832,90.1272 70.5832,90.4606 69.5,90.5C 69.5,86.8333 69.5,83.1667 69.5,79.5C 70.6935,78.7281 71.6935,77.7281 72.5,76.5 Z"/></g>
</svg>
